<svg width="563" height="232" viewBox="0 0 563 232" fill="none" xmlns="http://www.w3.org/2000/svg">
<path fill-rule="evenodd" clip-rule="evenodd" d="M136.896 56.5364C104.315 36.3848 61.0095 40.4469 32.7495 68.707C-0.249828 101.706 -0.249828 155.209 32.7495 188.208C65.7488 221.207 119.251 221.207 152.251 188.208C180.788 159.671 184.65 115.792 163.822 83.1071L170.568 78.8079C193.369 114.588 189.154 162.619 157.907 193.865C121.784 229.988 63.2161 229.988 27.0926 193.865C-9.03087 157.741 -9.03087 99.1736 27.0926 63.0501C58.0359 32.1068 105.439 27.673 141.104 49.7327L136.896 56.5364Z" fill="white"/>
<path fill-rule="evenodd" clip-rule="evenodd" d="M164.225 0.715681C165.464 1.3268 165.972 2.82589 165.361 4.06399L144.532 46.2625C147.819 44.7385 151.399 44.051 154.95 44.2001L169.522 24.0628C170.332 22.9442 171.895 22.6936 173.013 23.5031C174.132 24.3125 174.383 25.8755 173.573 26.994L160.455 45.1215C163.159 45.9286 165.741 47.2546 168.045 49.0996L187.239 29.9058C188.215 28.9295 189.798 28.9295 190.774 29.9058C191.751 30.8821 191.751 32.465 190.774 33.4414L171.581 52.6352C173.426 54.9388 174.752 57.521 175.559 60.2251L193.686 47.1071C194.805 46.2977 196.368 46.5483 197.177 47.6668C197.987 48.7854 197.736 50.3483 196.617 51.1578L176.48 65.7302C176.629 69.2812 175.942 72.8608 174.418 76.1483L216.616 55.3195C217.854 54.7083 219.353 55.2166 219.965 56.4547C220.576 57.6928 220.067 59.1919 218.829 59.803L163.798 86.9661C163.683 87.0229 163.565 87.07 163.447 87.1077C155.129 90.9531 144.947 89.4473 138.09 82.5901C131.233 75.733 129.727 65.551 133.572 57.2335C133.61 57.1148 133.657 56.9975 133.714 56.8824L160.877 1.85094C161.488 0.612838 162.987 0.104564 164.225 0.715681ZM166.374 54.3058C159.54 47.4717 148.46 47.4717 141.626 54.3058C134.791 61.14 134.791 72.2204 141.626 79.0546C148.46 85.8887 159.54 85.8887 166.374 79.0546C173.209 72.2204 173.209 61.14 166.374 54.3058Z" fill="white"/>
<path d="M255.9 140.33C255.9 144.425 254.325 146.735 250.44 146.735C246.03 146.735 244.665 143.795 244.665 139.175V121.955H237V140.33C237 149.675 241.095 154.61 250.545 154.61C260.1 154.61 263.88 149.465 263.88 140.33V127.94C263.88 120.38 262.935 117.755 260.1 114.185C256.845 110.09 250.755 105.05 246.975 100.115C245.4 98.12 245.085 97.07 245.085 93.395V80.585C245.085 76.49 246.975 74.39 250.65 74.39C254.955 74.39 256.11 77.33 256.11 81.635V96.335H263.565V80.585C263.565 71.03 260.1 66.305 250.755 66.305C241.515 66.305 237 70.925 237 80.585V93.5C237 99.275 237.21 101.375 239.835 104.735C242.88 108.62 248.865 113.66 253.275 119.12C255.375 121.745 255.9 122.795 255.9 128.045V140.33Z" fill="white"/>
<path d="M293.55 97.28C293.55 102.635 291.345 104.84 286.725 104.84H281.16V75.335H286.62C291.66 75.335 293.55 77.75 293.55 82.895V97.28ZM281.16 153.665V112.61H286.725C296.805 112.61 301.425 107.99 301.425 97.07V82.895C301.425 71.975 296.7 67.25 286.62 67.25H273.18V153.665H281.16Z" fill="white"/>
<path d="M334.464 153.665L323.229 67.25H313.884L302.019 153.665H309.789L311.679 139.175H324.594L326.484 153.665H334.464ZM312.624 131.825C314.619 117.02 316.509 102.74 318.294 87.515C319.974 102.74 321.864 117.02 323.649 131.825H312.624Z" fill="white"/>
<path d="M359.382 139.91C359.382 144.53 357.912 146.735 354.027 146.735C350.247 146.735 348.357 144.425 348.357 139.91V81.11C348.357 76.595 350.247 74.39 354.027 74.39C358.122 74.39 359.382 76.49 359.382 81.11V96.335H366.627V81.005C366.627 71.24 362.427 66.305 354.027 66.305C344.892 66.305 340.272 71.24 340.272 81.215V140.015C340.272 149.78 344.892 154.61 354.027 154.61C362.847 154.61 366.627 149.885 366.627 139.805V121.955H359.382V139.91Z" fill="white"/>
<path d="M399.344 153.665V145.79H383.909V113.66H394.409V105.68H383.909V75.335H398.819V67.25H375.929V153.665H399.344Z" fill="white"/>
<path d="M454.783 153.665L443.548 67.25H434.203L422.338 153.665H430.108L431.998 139.175H444.913L446.803 153.665H454.783ZM432.943 131.825C434.938 117.02 436.828 102.74 438.613 87.515C440.293 102.74 442.183 117.02 443.968 131.825H432.943Z" fill="white"/>
<path d="M483.129 97.28C483.129 102.635 480.924 104.84 476.304 104.84H470.739V75.335H476.199C481.239 75.335 483.129 77.75 483.129 82.895V97.28ZM470.739 153.665V112.61H476.304C486.384 112.61 491.004 107.99 491.004 97.07V82.895C491.004 71.975 486.279 67.25 476.199 67.25H462.759V153.665H470.739Z" fill="white"/>
<path d="M519.592 97.28C519.592 102.635 517.387 104.84 512.767 104.84H507.202V75.335H512.662C517.702 75.335 519.592 77.75 519.592 82.895V97.28ZM507.202 153.665V112.61H512.767C522.847 112.61 527.467 107.99 527.467 97.07V82.895C527.467 71.975 522.742 67.25 512.662 67.25H499.222V153.665H507.202Z" fill="white"/>
<path d="M554.253 140.33C554.253 144.425 552.678 146.735 548.793 146.735C544.383 146.735 543.018 143.795 543.018 139.175V121.955H535.353V140.33C535.353 149.675 539.448 154.61 548.898 154.61C558.453 154.61 562.233 149.465 562.233 140.33V127.94C562.233 120.38 561.288 117.755 558.453 114.185C555.198 110.09 549.108 105.05 545.328 100.115C543.753 98.12 543.438 97.07 543.438 93.395V80.585C543.438 76.49 545.328 74.39 549.003 74.39C553.308 74.39 554.463 77.33 554.463 81.635V96.335H561.918V80.585C561.918 71.03 558.453 66.305 549.108 66.305C539.868 66.305 535.353 70.925 535.353 80.585V93.5C535.353 99.275 535.563 101.375 538.188 104.735C541.233 108.62 547.218 113.66 551.628 119.12C553.728 121.745 554.253 122.795 554.253 128.045V140.33Z" fill="white"/>
<path d="M366.887 48.025H360.199L353.799 30.841C354.012 32.5263 354.172 34.0197 354.279 35.321C354.407 36.601 354.471 38.1263 354.471 39.897V48.025H349.799V25.849H356.327L362.887 43.065C362.418 40.1423 362.183 37.3903 362.183 34.809V25.849H366.887V48.025Z" fill="#DB240B"/>
<path d="M390.698 48.025L389.546 43.257H383.082L381.962 48.025H376.522L383.21 25.849H389.578L396.266 48.025H390.698ZM383.978 39.449H388.65L386.314 29.657L383.978 39.449Z" fill="#DB240B"/>
<path d="M413.029 25.305C414.693 25.305 416.133 25.5397 417.349 26.009C418.586 26.4783 419.706 27.193 420.709 28.153L418.277 31.001C416.762 29.7637 415.141 29.145 413.413 29.145C412.496 29.145 411.77 29.337 411.237 29.721C410.704 30.0837 410.437 30.617 410.437 31.321C410.437 31.8117 410.554 32.217 410.789 32.537C411.024 32.8357 411.44 33.1237 412.037 33.401C412.634 33.6783 413.53 34.009 414.725 34.393C416.986 35.1183 418.65 36.0143 419.717 37.081C420.784 38.1263 421.317 39.6197 421.317 41.561C421.317 42.9477 420.965 44.1743 420.261 45.241C419.557 46.2863 418.544 47.1077 417.221 47.705C415.898 48.281 414.33 48.569 412.517 48.569C410.704 48.569 409.093 48.281 407.685 47.705C406.298 47.129 405.104 46.361 404.101 45.401L406.757 42.489C407.61 43.2143 408.485 43.7583 409.381 44.121C410.298 44.4837 411.29 44.665 412.357 44.665C413.445 44.665 414.298 44.4303 414.917 43.961C415.557 43.4703 415.877 42.7983 415.877 41.945C415.877 41.3903 415.76 40.9317 415.525 40.569C415.29 40.185 414.885 39.8437 414.309 39.545C413.733 39.2463 412.901 38.9263 411.813 38.585C409.36 37.8383 407.61 36.921 406.565 35.833C405.541 34.745 405.029 33.369 405.029 31.705C405.029 30.425 405.37 29.305 406.053 28.345C406.736 27.3637 407.685 26.617 408.901 26.105C410.117 25.5717 411.493 25.305 413.029 25.305Z" fill="#DB240B"/>
<path d="M443.729 48.025L442.577 43.257H436.113L434.993 48.025H429.553L436.241 25.849H442.609L449.297 48.025H443.729ZM437.009 39.449H441.681L439.345 29.657L437.009 39.449Z" fill="#DB240B"/>
<path d="M337.394 206.847C335.247 208.955 332.061 212.41 329.616 214.81C327.172 212.41 323.986 208.955 321.838 206.847C317.542 202.629 317.542 195.791 321.838 191.573C326.134 187.356 333.099 187.356 337.394 191.573C341.69 195.791 341.69 202.629 337.394 206.847Z" fill="#DB240B"/>
<path d="M369.486 190.82V207.71H377.586L377.076 211.61H364.566V190.82H369.486ZM390.897 211.61L389.817 207.14H383.757L382.707 211.61H377.607L383.877 190.82H389.847L396.117 211.61H390.897ZM384.597 203.57H388.977L386.787 194.39L384.597 203.57ZM403.372 208.46C403.372 210.12 403.072 211.49 402.472 212.57C401.892 213.65 401.112 214.49 400.132 215.09C399.172 215.71 398.022 216.24 396.682 216.68L395.362 213.2C396.242 212.86 396.902 212.47 397.342 212.03C397.782 211.59 398.072 211.08 398.212 210.5C398.372 209.92 398.452 209.18 398.452 208.28V190.82H403.372V208.46ZM419.914 190.82L419.404 194.33H412.084V199.31H418.474V202.76H412.084V208.07H419.914V211.61H407.164V190.82H419.914ZM433.905 211.61L432.825 207.14H426.765L425.715 211.61H420.615L426.885 190.82H432.855L439.125 211.61H433.905ZM427.605 203.57H431.985L429.795 194.39L427.605 203.57ZM446.44 190.82C449.7 190.82 452.31 191.56 454.27 193.04C456.25 194.5 457.24 197.19 457.24 201.11C457.24 204.97 456.28 207.69 454.36 209.27C452.44 210.83 449.95 211.61 446.89 211.61H440.65V190.82H446.44ZM445.57 194.39V208.04H447.19C448.81 208.04 450.04 207.54 450.88 206.54C451.72 205.52 452.14 203.71 452.14 201.11C452.14 199.33 451.93 197.95 451.51 196.97C451.09 195.99 450.52 195.32 449.8 194.96C449.08 194.58 448.19 194.39 447.13 194.39H445.57ZM468.591 190.31C471.551 190.31 473.851 191.26 475.491 193.16C477.151 195.06 477.981 197.74 477.981 201.2C477.981 203.46 477.601 205.41 476.841 207.05C476.101 208.69 475.021 209.95 473.601 210.83C472.201 211.69 470.531 212.12 468.591 212.12C466.651 212.12 464.981 211.69 463.581 210.83C462.181 209.97 461.101 208.73 460.341 207.11C459.601 205.47 459.231 203.5 459.231 201.2C459.231 198.96 459.601 197.02 460.341 195.38C461.101 193.74 462.181 192.49 463.581 191.63C464.981 190.75 466.651 190.31 468.591 190.31ZM468.591 193.91C467.171 193.91 466.111 194.49 465.411 195.65C464.731 196.79 464.391 198.64 464.391 201.2C464.391 203.76 464.741 205.62 465.441 206.78C466.141 207.94 467.191 208.52 468.591 208.52C470.031 208.52 471.091 207.95 471.771 206.81C472.471 205.65 472.821 203.78 472.821 201.2C472.821 198.62 472.471 196.76 471.771 195.62C471.071 194.48 470.011 193.91 468.591 193.91Z" fill="white"/>
<path fill-rule="evenodd" clip-rule="evenodd" d="M183.749 214.95H180.971V204.803H185.88C186.595 204.803 187.228 204.94 187.778 205.215C188.337 205.49 188.768 205.88 189.07 206.384C189.382 206.888 189.538 207.493 189.538 208.199C189.538 208.914 189.377 209.523 189.056 210.028C188.777 210.459 188.404 210.803 187.937 211.06L189.813 214.95H186.774L185.267 211.554L183.749 211.554V214.95ZM185.261 209.56H183.749V206.851H185.275C185.678 206.851 186.008 206.961 186.265 207.181C186.522 207.392 186.65 207.731 186.65 208.199C186.65 208.648 186.522 208.987 186.265 209.216C186.008 209.445 185.674 209.56 185.261 209.56Z" fill="white"/>
<path fill-rule="evenodd" clip-rule="evenodd" d="M180.724 220.147C182.053 220.716 183.478 221 185 221C186.522 221 187.947 220.716 189.276 220.147C190.605 219.579 191.774 218.791 192.782 217.782C193.791 216.774 194.579 215.605 195.147 214.276C195.716 212.947 196 211.522 196 210C196 208.478 195.716 207.053 195.147 205.724C194.579 204.395 193.791 203.226 192.782 202.217C191.774 201.209 190.605 200.421 189.276 199.853C187.947 199.284 186.522 199 185 199C183.478 199 182.053 199.284 180.724 199.853C179.395 200.421 178.226 201.209 177.217 202.217C176.209 203.226 175.421 204.395 174.853 205.724C174.284 207.053 174 208.478 174 210C174 211.522 174.284 212.947 174.853 214.276C175.421 215.605 176.209 216.774 177.217 217.782C178.226 218.791 179.395 219.579 180.724 220.147ZM189.042 216.93C187.832 217.645 186.485 218.002 185 218.002C183.524 218.002 182.181 217.645 180.971 216.93C179.761 216.206 178.794 215.239 178.07 214.029C177.355 212.819 176.998 211.476 176.998 210C176.998 208.524 177.355 207.181 178.07 205.971C178.794 204.761 179.761 203.799 180.971 203.084C182.181 202.36 183.524 201.997 185 201.997C186.476 201.997 187.819 202.36 189.029 203.084C190.248 203.799 191.215 204.761 191.93 205.971C192.654 207.181 193.016 208.524 193.016 210C193.016 211.476 192.654 212.819 191.93 214.029C191.215 215.239 190.252 216.206 189.042 216.93Z" fill="white"/>
</svg>
