<svg width="428" height="428" viewBox="0 0 428 428" fill="none" xmlns="http://www.w3.org/2000/svg">
<g clip-path="url(#clip0_462_1838)">
<path fill-rule="evenodd" clip-rule="evenodd" d="M343.311 13.9612C344.583 14.589 345.105 16.1288 344.477 17.4006L318.267 70.5009C322.658 68.1668 327.555 67.1253 332.398 67.3763L350.435 42.451C351.267 41.302 352.872 41.0446 354.021 41.876C355.17 42.7075 355.427 44.313 354.596 45.462L338.083 68.2806C341.724 69.2646 345.2 71.0204 348.252 73.548L372.12 49.6802C373.123 48.6773 374.749 48.6773 375.752 49.6802C376.755 50.683 376.755 52.309 375.752 53.3119L351.884 77.1797C354.412 80.2316 356.167 83.7076 357.151 87.3487L379.97 70.836C381.119 70.0046 382.724 70.262 383.556 71.4109C384.387 72.5599 384.13 74.1654 382.981 74.9968L358.056 93.0341C358.307 97.8769 357.265 102.774 354.931 107.165L408.031 80.955C409.303 80.3272 410.843 80.8493 411.471 82.1211C412.099 83.3929 411.576 84.9328 410.305 85.5605L342.786 118.887C342.658 118.95 342.528 119.002 342.396 119.042C332.37 123.691 320.088 121.882 311.819 113.613C303.55 105.344 301.741 93.0617 306.39 83.0361C306.43 82.9042 306.482 82.7737 306.545 82.6459L339.871 15.1274C340.499 13.8556 342.039 13.3335 343.311 13.9612ZM346.521 78.9106C337.941 70.3308 324.031 70.3308 315.451 78.9106C306.871 87.4905 306.871 101.401 315.451 109.981C324.031 118.561 337.941 118.561 346.521 109.981C355.101 101.401 355.101 87.4905 346.521 78.9106Z" fill="white"/>
<path fill-rule="evenodd" clip-rule="evenodd" d="M211.192 46.4874C146.924 46.4874 91.1028 82.6792 63.0087 135.81C62.1248 137.482 60.053 138.12 58.3813 137.236C56.7096 136.352 56.071 134.28 56.9549 132.609C86.1882 77.3238 144.287 39.6394 211.192 39.6394C250.138 39.6394 286.11 52.4123 315.136 73.9965C316.653 75.1249 316.969 77.2698 315.84 78.7872C314.712 80.3047 312.567 80.62 311.049 79.4916C283.165 58.7559 248.616 46.4874 211.192 46.4874ZM346.621 109.632C348.141 108.507 350.285 108.826 351.411 110.346C356.618 117.38 361.31 124.819 365.429 132.609C366.313 134.28 365.674 136.352 364.002 137.236C362.331 138.12 360.259 137.482 359.375 135.81C355.418 128.327 350.911 121.179 345.907 114.421C344.782 112.901 345.102 110.757 346.621 109.632ZM45.6911 257.068C47.5116 256.556 49.4023 257.617 49.9141 259.437C69.7181 329.877 134.429 381.513 211.192 381.513C287.954 381.513 352.666 329.877 372.47 259.437C372.982 257.617 374.872 256.556 376.693 257.068C378.513 257.58 379.574 259.47 379.062 261.291C358.449 334.606 291.103 388.361 211.192 388.361C131.281 388.361 63.9343 334.606 43.3217 261.291C42.8098 259.47 43.8707 257.58 45.6911 257.068Z" fill="white"/>
<path d="M180.916 134.829H174.214L167.801 117.61C168.015 119.298 168.175 120.795 168.282 122.099C168.41 123.381 168.475 124.91 168.475 126.684V134.829H163.793V112.608H170.334L176.908 129.859C176.437 126.93 176.202 124.172 176.202 121.586V112.608H180.916V134.829Z" fill="#DB240B"/>
<path d="M204.775 134.829L203.62 130.051H197.143L196.021 134.829H190.57L197.272 112.608H203.652L210.354 134.829H204.775ZM198.041 126.235H202.723L200.382 116.423L198.041 126.235Z" fill="#DB240B"/>
<path d="M227.151 112.062C228.818 112.062 230.261 112.298 231.48 112.768C232.72 113.238 233.842 113.954 234.847 114.916L232.41 117.77C230.892 116.53 229.267 115.91 227.536 115.91C226.617 115.91 225.89 116.103 225.355 116.487C224.821 116.851 224.554 117.385 224.554 118.091C224.554 118.582 224.671 118.989 224.906 119.309C225.142 119.608 225.558 119.897 226.157 120.175C226.756 120.453 227.653 120.784 228.85 121.169C231.116 121.896 232.784 122.794 233.853 123.862C234.921 124.91 235.456 126.406 235.456 128.351C235.456 129.741 235.103 130.97 234.398 132.039C233.692 133.086 232.677 133.909 231.352 134.508C230.026 135.085 228.455 135.374 226.638 135.374C224.821 135.374 223.207 135.085 221.796 134.508C220.407 133.931 219.21 133.161 218.205 132.199L220.866 129.281C221.721 130.008 222.598 130.553 223.496 130.917C224.415 131.28 225.409 131.462 226.478 131.462C227.568 131.462 228.423 131.227 229.043 130.756C229.684 130.265 230.005 129.591 230.005 128.736C230.005 128.18 229.887 127.721 229.652 127.357C229.417 126.973 229.011 126.631 228.434 126.331C227.856 126.032 227.023 125.711 225.933 125.369C223.474 124.621 221.721 123.702 220.674 122.612C219.648 121.522 219.135 120.143 219.135 118.475C219.135 117.193 219.477 116.071 220.161 115.109C220.845 114.125 221.796 113.377 223.015 112.864C224.233 112.33 225.612 112.062 227.151 112.062Z" fill="#DB240B"/>
<path d="M257.914 134.829L256.759 130.051H250.282L249.16 134.829H243.709L250.41 112.608H256.791L263.493 134.829H257.914ZM251.18 126.235H255.861L253.521 116.423L251.18 126.235Z" fill="#DB240B"/>
<path d="M70.3981 226.278C70.3981 230.367 68.8236 232.673 64.9397 232.673C60.5311 232.673 59.1665 229.738 59.1665 225.125V207.932H51.5037V226.278C51.5037 235.609 55.5975 240.536 65.0447 240.536C74.5969 240.536 78.3758 235.399 78.3758 226.278V213.907C78.3758 206.359 77.4311 203.738 74.5969 200.174C71.3429 196.085 65.2547 191.053 61.4758 186.126C59.9012 184.134 59.5863 183.085 59.5863 179.416V166.626C59.5863 162.537 61.4758 160.44 65.1497 160.44C69.4534 160.44 70.6081 163.376 70.6081 167.674V182.351H78.0609V166.626C78.0609 157.086 74.5969 152.368 65.2547 152.368C56.0174 152.368 51.5037 156.981 51.5037 166.626V179.521C51.5037 185.287 51.7137 187.384 54.3379 190.738C57.382 194.617 63.3652 199.65 67.7739 205.101C69.8733 207.722 70.3981 208.77 70.3981 214.012V226.278Z" fill="white"/>
<path d="M108.037 183.295C108.037 188.642 105.833 190.843 101.214 190.843H95.6505V161.384H101.109C106.147 161.384 108.037 163.795 108.037 168.932V183.295ZM95.6505 239.593V198.601H101.214C111.291 198.601 115.91 193.988 115.91 183.085V168.932C115.91 158.029 111.186 153.312 101.109 153.312H87.6729V239.593H95.6505Z" fill="white"/>
<path d="M148.939 239.593L137.707 153.312H128.365L116.503 239.593H124.271L126.16 225.125H139.072L140.961 239.593H148.939ZM127.105 217.786C129.1 203.004 130.989 188.747 132.773 173.545C134.453 188.747 136.342 203.004 138.127 217.786H127.105Z" fill="white"/>
<path d="M173.849 225.859C173.849 230.472 172.38 232.673 168.496 232.673C164.717 232.673 162.827 230.367 162.827 225.859V167.15C162.827 162.642 164.717 160.44 168.496 160.44C172.589 160.44 173.849 162.537 173.849 167.15V182.351H181.092V167.045C181.092 157.295 176.893 152.368 168.496 152.368C159.363 152.368 154.745 157.295 154.745 167.255V225.964C154.745 235.714 159.363 240.536 168.496 240.536C177.313 240.536 181.092 235.818 181.092 225.754V207.932H173.849V225.859Z" fill="white"/>
<path d="M213.8 239.593V231.73H198.369V199.65H208.866V191.682H198.369V161.384H213.275V153.312H190.392V239.593H213.8Z" fill="white"/>
<path d="M269.222 239.593L257.991 153.312H248.648L236.787 239.593H244.555L246.444 225.125H259.355L261.245 239.593H269.222ZM247.389 217.786C249.383 203.004 251.273 188.747 253.057 173.545C254.737 188.747 256.626 203.004 258.411 217.786H247.389Z" fill="white"/>
<path d="M297.56 183.295C297.56 188.642 295.356 190.843 290.737 190.843H285.174V161.384H290.632C295.67 161.384 297.56 163.795 297.56 168.932V183.295ZM285.174 239.593V198.601H290.737C300.814 198.601 305.433 193.988 305.433 183.085V168.932C305.433 158.029 300.709 153.312 290.632 153.312H277.196V239.593H285.174Z" fill="white"/>
<path d="M334.012 183.295C334.012 188.642 331.808 190.843 327.189 190.843H321.626V161.384H327.084C332.123 161.384 334.012 163.795 334.012 168.932V183.295ZM321.626 239.593V198.601H327.189C337.266 198.601 341.885 193.988 341.885 183.085V168.932C341.885 158.029 337.161 153.312 327.084 153.312H313.648V239.593H321.626Z" fill="white"/>
<path d="M368.662 226.278C368.662 230.367 367.088 232.673 363.204 232.673C358.795 232.673 357.431 229.738 357.431 225.125V207.932H349.768V226.278C349.768 235.609 353.862 240.536 363.309 240.536C372.861 240.536 376.64 235.399 376.64 226.278V213.907C376.64 206.359 375.695 203.738 372.861 200.174C369.607 196.085 363.519 191.053 359.74 186.126C358.165 184.134 357.851 183.085 357.851 179.416V166.626C357.851 162.537 359.74 160.44 363.414 160.44C367.718 160.44 368.872 163.376 368.872 167.674V182.351H376.325V166.626C376.325 157.086 372.861 152.368 363.519 152.368C354.282 152.368 349.768 156.981 349.768 166.626V179.521C349.768 185.287 349.978 187.384 352.602 190.738C355.646 194.617 361.629 199.65 366.038 205.101C368.138 207.722 368.662 208.77 368.662 214.012V226.278Z" fill="white"/>
<path d="M152.394 291.542C150.247 293.65 147.061 297.105 144.616 299.505C142.172 297.105 138.986 293.65 136.838 291.542C132.542 287.324 132.542 280.486 136.838 276.268C141.134 272.051 148.099 272.051 152.394 276.268C156.69 280.486 156.69 287.324 152.394 291.542Z" fill="#DB240B"/>
<path d="M184.486 275.515V292.405H192.586L192.076 296.305H179.566V275.515H184.486ZM205.897 296.305L204.817 291.835H198.757L197.707 296.305H192.607L198.877 275.515H204.847L211.117 296.305H205.897ZM199.597 288.265H203.977L201.787 279.085L199.597 288.265ZM218.372 293.155C218.372 294.815 218.072 296.185 217.472 297.265C216.892 298.345 216.112 299.185 215.132 299.785C214.172 300.405 213.022 300.935 211.682 301.375L210.362 297.895C211.242 297.555 211.902 297.165 212.342 296.725C212.782 296.285 213.072 295.775 213.212 295.195C213.372 294.615 213.452 293.875 213.452 292.975V275.515H218.372V293.155ZM234.914 275.515L234.404 279.025H227.084V284.005H233.474V287.455H227.084V292.765H234.914V296.305H222.164V275.515H234.914ZM248.905 296.305L247.825 291.835H241.765L240.715 296.305H235.615L241.885 275.515H247.855L254.125 296.305H248.905ZM242.605 288.265H246.985L244.795 279.085L242.605 288.265ZM261.44 275.515C264.7 275.515 267.31 276.255 269.27 277.735C271.25 279.195 272.24 281.885 272.24 285.805C272.24 289.665 271.28 292.385 269.36 293.965C267.44 295.525 264.95 296.305 261.89 296.305H255.65V275.515H261.44ZM260.57 279.085V292.735H262.19C263.81 292.735 265.04 292.235 265.88 291.235C266.72 290.215 267.14 288.405 267.14 285.805C267.14 284.025 266.93 282.645 266.51 281.665C266.09 280.685 265.52 280.015 264.8 279.655C264.08 279.275 263.19 279.085 262.13 279.085H260.57ZM283.591 275.005C286.551 275.005 288.851 275.955 290.491 277.855C292.151 279.755 292.981 282.435 292.981 285.895C292.981 288.155 292.601 290.105 291.841 291.745C291.101 293.385 290.021 294.645 288.601 295.525C287.201 296.385 285.531 296.815 283.591 296.815C281.651 296.815 279.981 296.385 278.581 295.525C277.181 294.665 276.101 293.425 275.341 291.805C274.601 290.165 274.231 288.195 274.231 285.895C274.231 283.655 274.601 281.715 275.341 280.075C276.101 278.435 277.181 277.185 278.581 276.325C279.981 275.445 281.651 275.005 283.591 275.005ZM283.591 278.605C282.171 278.605 281.111 279.185 280.411 280.345C279.731 281.485 279.391 283.335 279.391 285.895C279.391 288.455 279.741 290.315 280.441 291.475C281.141 292.635 282.191 293.215 283.591 293.215C285.031 293.215 286.091 292.645 286.771 291.505C287.471 290.345 287.821 288.475 287.821 285.895C287.821 283.315 287.471 281.455 286.771 280.315C286.071 279.175 285.011 278.605 283.591 278.605Z" fill="white"/>
<path fill-rule="evenodd" clip-rule="evenodd" d="M367.749 368.95H364.971V358.803H369.88C370.595 358.803 371.228 358.94 371.778 359.215C372.337 359.49 372.768 359.88 373.07 360.384C373.382 360.888 373.538 361.493 373.538 362.199C373.538 362.914 373.377 363.523 373.056 364.028C372.777 364.459 372.404 364.803 371.937 365.06L373.813 368.95H370.774L369.267 365.554L367.749 365.554V368.95ZM369.261 363.56H367.749V360.851H369.275C369.678 360.851 370.008 360.961 370.265 361.181C370.522 361.392 370.65 361.731 370.65 362.199C370.65 362.648 370.522 362.987 370.265 363.216C370.008 363.445 369.674 363.56 369.261 363.56Z" fill="white"/>
<path fill-rule="evenodd" clip-rule="evenodd" d="M364.724 374.147C366.053 374.716 367.478 375 369 375C370.522 375 371.947 374.716 373.276 374.147C374.605 373.579 375.774 372.791 376.782 371.782C377.791 370.774 378.579 369.605 379.147 368.276C379.716 366.947 380 365.522 380 364C380 362.478 379.716 361.053 379.147 359.724C378.579 358.395 377.791 357.226 376.782 356.217C375.774 355.209 374.605 354.421 373.276 353.853C371.947 353.284 370.522 353 369 353C367.478 353 366.053 353.284 364.724 353.853C363.395 354.421 362.226 355.209 361.217 356.217C360.209 357.226 359.421 358.395 358.853 359.724C358.284 361.053 358 362.478 358 364C358 365.522 358.284 366.947 358.853 368.276C359.421 369.605 360.209 370.774 361.217 371.782C362.226 372.791 363.395 373.579 364.724 374.147ZM373.042 370.93C371.832 371.645 370.485 372.002 369 372.002C367.524 372.002 366.181 371.645 364.971 370.93C363.761 370.206 362.794 369.239 362.07 368.029C361.355 366.819 360.998 365.476 360.998 364C360.998 362.524 361.355 361.181 362.07 359.971C362.794 358.761 363.761 357.799 364.971 357.084C366.181 356.36 367.524 355.997 369 355.997C370.476 355.997 371.819 356.36 373.029 357.084C374.248 357.799 375.215 358.761 375.93 359.971C376.654 361.181 377.016 362.524 377.016 364C377.016 365.476 376.654 366.819 375.93 368.029C375.215 369.239 374.252 370.206 373.042 370.93Z" fill="white"/>
</g>
<defs>
<clipPath id="clip0_462_1838">
<rect width="428" height="428" fill="white"/>
</clipPath>
</defs>
</svg>
